<?xml version="1.0" encoding="UTF-8"?>
<svg id="Calque_1" xmlns="http://www.w3.org/2000/svg" version="1.1" viewBox="0 0 59 59">
  <!-- Generator: Adobe Illustrator 29.0.0, SVG Export Plug-In . SVG Version: 2.1.0 Build 186)  -->
  <defs>
    <style>
      .st0 {
        fill: #fff;
      }
    </style>
  </defs>
  <path class="st0" d="M59,0v59H0V0h59ZM39.8,15.7c5.9-.9,6.1-8.9.8-11.1s-2.4-.6-2.6-.7-.6-1-.8-1.3c-1.7-2.1-4.6-2.8-7.2-1.9s-1.3.8-1.5.8c-.4,0-1.4-.4-2-.5-2.1-.2-3.2.6-4.6,2.1s-.6.9-.7.9c-.2.1-.7,0-.9,0-3.1.1-4.3,2.7-4.2,5.5-6.1,1.8-4.3,9.7,2.1,8.2,0,1,.3,2,.8,2.8-1.5.8-1.7,2.3-1.6,3.9s.8,3.4,2.7,3.8c0,1.7,1,3.4,2.1,4.6s1.7,1.5,1.7,1.6l-.4.8c-5.7,1-9.8,5.1-11.5,10.5s0,9.1,6.3,8.6,2.2-.5,3.1-.5,2.7.5,3.9.6c2.4.1,5.4.4,7.7.2s3-.5,4.4-.5,3.6.2,5.3.2c5-.2,6-2.8,5.1-7.4s-5.6-10.9-11.7-11.7l-.5-1c1.2-1.3,2.6-2.6,3.2-4.4s.2-1.5.3-1.7.6-.2.8-.4c1.5-1.1,1.5-2.8,1.4-4.5s-.6-2.2-1.9-2.8c0-1.6.4-3.2.5-4.7Z"/>
  <path d="M39.8,15.7c-.1,1.6-.6,3.1-.5,4.7,1.3.5,1.8,1.4,1.9,2.8s0,3.4-1.4,4.5-.7.3-.8.4c-.1.2-.2,1.3-.3,1.7-.6,1.7-2,3.1-3.2,4.4l.5,1c6.1.7,10.5,5.9,11.7,11.7s0,7.2-5.1,7.4-3.7-.2-5.3-.2-3,.5-4.4.5c-2.3.1-5.3-.1-7.7-.2s-2.8-.6-3.9-.6-2.2.4-3.1.5c-6.4.5-8.1-2.8-6.3-8.6s5.8-9.5,11.5-10.5l.4-.8c0-.2-1.4-1.4-1.7-1.6-1.1-1.2-2.1-2.9-2.1-4.6-1.9-.3-2.6-2-2.7-3.8s0-3.1,1.6-3.9c-.5-.9-.7-1.9-.8-2.8-6.4,1.5-8.2-6.4-2.1-8.2,0-2.8,1.1-5.4,4.2-5.5s.7.2.9,0,.5-.8.7-.9c1.4-1.5,2.5-2.3,4.6-2.1s1.6.5,2,.5,1.1-.6,1.5-.8c2.5-1,5.5-.2,7.2,1.9s.7,1.2.8,1.3c.2.2,2,.5,2.6.7,5.4,2.2,5.2,10.2-.8,11.1ZM39.6,14.3c3.5,0,4.6-3.9,3-6.6s-3.4-2.4-5.5-2.7c-1.2-2.8-4-4.4-7-3.2s-.6.4-1,.5l1,1.5c0,0-1.2-.8-1.4-.9-3.3-1.8-5.6-.8-7.5,2.2-3.4-1.1-4.9,2.1-4.5,5.1-2.5,0-5.6,3.4-3,5.5s3,.8,4.5.6v-1c-1.5-.3-2.7-1.1-3-2.6,1,1.1,2.9,1.6,3.9.2s-.6-2.8,0-4.2l.7,1.5c.6.9,1.5.9,2.5.6,3.8-1,.6-3.5,2.1-5.8,0,2.4,1,4.4,3.6,4.3s3.7-.7,4.4-1.2,1.5-1.9,1.7-3c.4.9,0,2.4-.7,3.1l-1,.8c.6.1,1.2.1,1.8.3,1.1.3,2.3,1.3,3.2,0l.2-1.3c.5.6.7,1.3.3,2s-.4.4-.5.6-.2,0,0,.2c1.2.9,2.2.7,3.2-.3-.2,1-.7,1.5-1.6,1.9l.4,1.9ZM38.4,17.7c.2-2.9.5-5.3-2.4-6.7-4.2-2.1-10.7-1.2-14.6,1.2s-2.2,1.5-2.3,2.1l.3,4.8.2.3c2.1-1.7,5-2.6,7.6-3.1,3.9-.7,7.8-.6,11.2,1.5ZM34.8,29.2c1.3-.5,2.3-1.8,2.8-3.1.9-2.2.4-5.1.4-7.4-3-2.2-7.2-2.1-10.7-1.5s-4.6,1.2-6.5,2.5c-.1,3.5-.3,7.5,3,9.5,0-.5-.2-.8-.2-1.3.1-1.7,3-1.9,4.3-1.8s1,.3,1.5.3,1.2-.3,1.8-.4c2-.1,4.6.4,3.5,3ZM39.1,27c1-.2,1.2-1.3,1.3-2.1s.2-4-1.6-3.3v2.4c.3.2.9-.7,1-.8,0,.8-.4,1.4-.9,1.9l.2,2ZM20.2,21.5c-2.4-.8-2.2,2-1.9,3.6s.7,2,1.9,2v-2.2c0,0-1-.3-1.2-1.1s-.2-.7,0-.7c.1.5.6.9,1.2,1v-2.5ZM32.8,28.5c-1.6.3-3.3.4-4.9.3s-1.1-.2-1.6-.2,0,.8.2,1c.9,1.1,2.9,1.4,4.2,1s2.3-1,2.1-2.1ZM34.6,36.6c.1-.1.5-.6.5-.7l-.5-1.2-2.7,1.4v1.5c0,.1,0,.2.1.2s1.1,0,1.3-.1,1.1-.7,1.3-.9ZM25.9,37.6c.5.1,1.5,0,2,0v-1.4c-.1,0-3.4-1.4-3.4-1.4-.2.4-.5.8-.3,1.2s1.4,1.5,1.7,1.5ZM23.5,36.1c-1.9.3-3.9,1.3-5.4,2.5-2.8,2.2-5.7,7.5-5.4,11.1s1.2,3,2.7,3.2,3.9-.2,5.7-.5c-.1-.9.3-1.5.5-2.3l-2.4-1.1-3.4-.9,1.9-.2,1.8-5.3c0,1.9-.3,3.9-.1,5.8,0,0,1.1.5,1.2.3l.7-11.1h3.6c0-.1-1.3-1.6-1.3-1.6ZM41.4,52.9h3.1c.1,0,.9-.3,1.1-.4,1.8-1.2,1.4-4.4.9-6.2-1.5-4.7-5.6-9-10.5-10.1-.2,0-1.1,1-1.4,1.2s-.2,0-.1.3h3.4l.2.3,1,8.6.6.3c0-1.3-.3-2.6-.2-3.9s0-.4.1-.4l2.4,5.6,1.8-.8-2.8,2.7c.6.8.9,1.7.5,2.7ZM28.3,37.6h3v-1c-1.1,1.2-1.9.9-3-.1v1.2ZM37.3,38.1h-15.5l-.6,11.1.5.3c.2-.2,0-.5,0-.7,0-.7.5-.4.8-.6s.2-.4.3-.5,2.6-1.4,2.8-1.5c.6-.1,1.3,0,2-.2s1.5-.4,1.6-.5h0c-.6-1,0-1.9,1-1.9s.5.2.6.2.3-.3.4-.3c.5-.2.9-.1,1.5,0,.1-.1-.9-1.4-.4-1.6s.2,0,.3.1c.4.7.4,1.9,1.4,2,0,0-.9-1.7-1-2-.1-.5.2-.7.4,0,.5,1,.7,2.2,1.5,3,0-.4-.2-.9-.3-1.3-.3-.7-.6-1.4-1-2h.4s1.5,4,1.5,4c.2,0,.1-.3.1-.4,0-.3,0-.6,0-.9,0-.5-1-2.5-1-2.7,0-.4.6,0,.6.2.6.5,1.3,1.8,1.3,2.6s-.3,1.3-.2,1.6c.6.4,1.1.5,1.8.5l-1-8.3ZM33.9,45.1s-.4-.9-.4-.9c-.5-.4-1.3-.5-1.9-.4l1.1.4c.4.2.6.9,1.2.8ZM33,45.2c-.6-1-2.1-1-3.1-.9,0,.3,0,.2.2.2.7.2,1.3.1,1.9.3s.6.5,1,.4ZM30.2,46.2c0-.2-.3-.4-.5-.3-.5.1-1.7,2.3-1.1,2.9l.6-1.5c.5-.2.4-1,1-1.1ZM33.2,48.4l.9-1-.5-1.1c-.4.4-1,.2-1.4.2l1,1.8ZM35.7,46.4c-.5.5,1.3.6,1.5.6.6.2.6.2,1.2.3s.9.6.9.2-2.2-.7-2.7-.8-.8-.4-.9-.3ZM28.3,46.7c-1.1-.1-2.7-.4-3.6.5.2,0,.4-.2.5-.2s.3.2.5.2c.5,0,.8-.1,1.3-.2s1.1.1,1.3-.2ZM30.8,47.4c-1.2-.2-1.4.4-1.4,1.5h.7c0-.3-.2-.2-.2-.3,0-.6.8-.7.9-1.2ZM34.3,48.1c.4,0,.9-.4,1.2-.3s.3.2.5.3c.5.2,1.2.3,1.4-.3,0-.5-2.8-.4-3.1.3ZM27.1,48.2c-.7-.3-1.2,0-1.8-.1s-1.9-.7-2.3.3c1.6.3,3.2.4,4.8.3-.1-.2-.5-.6-.7-.4l.2.3h-1s.6-.1.6-.1v-.3ZM25.1,50.2h-1.7c0,0-1.1.4-1.2.4-.6.3-.9,1.2-.6,1.8s4.1.8,4.6-.3c-.3,0-2-.5-2.1-.6-.3-.5,1.2-.6.9-1.3ZM36,52.3c.6,1,4.2,1,4.8.4s.3-1.9-.3-2-.6.1-.9,0c-.6,0-1.3-.3-1.9-.3-.2.6,1.1.6.8,1.2s-2,.6-2.5.7Z"/>
  <path class="st0" d="M39.6,14.3l-.4-1.9c.9-.4,1.4-.9,1.6-1.9-1,1-2.1,1.2-3.2.3s0,0,0-.2c.1-.2.4-.3.5-.6.4-.7.2-1.4-.3-2l-.2,1.3c-.9,1.4-2.1.3-3.2,0s-1.2-.1-1.8-.3l1-.8c.7-.8,1.1-2.2.7-3.1-.1,1.1-.7,2.4-1.7,3s-3.5,1.2-4.4,1.2c-2.6,0-3.7-1.9-3.6-4.3-1.5,2.3,1.6,4.8-2.1,5.8s-1.9.3-2.5-.6l-.7-1.5c-.5,1.4.9,3,0,4.2s-2.9.9-3.9-.2c.3,1.5,1.4,2.4,2.9,2.6v1c-1.5.2-3.2.4-4.4-.6-2.6-2,.4-5.4,3-5.5-.4-2.9,1.1-6.2,4.5-5.1,1.9-3.1,4.1-4.1,7.5-2.2s1.3.9,1.4.9l-1-1.5c.4,0,.7-.4,1-.5,2.9-1.2,5.8.4,7,3.2,2,.3,4.3.8,5.5,2.7s.5,6.6-3,6.6Z"/>
  <path class="st0" d="M34.8,29.2c1.1-2.6-1.5-3.1-3.5-3s-1.3.4-1.8.4-1-.3-1.5-.3c-1.3-.1-4.2.1-4.3,1.8s.2.9.2,1.3c-3.3-2.1-3.2-6.1-3-9.5,1.9-1.3,4.3-2.1,6.5-2.5,3.5-.6,7.7-.7,10.7,1.5,0,2.4.5,5.2-.4,7.4s-1.5,2.5-2.8,3.1ZM32.6,19c0,.7.8.8,1.3,1s1,.6,1.2.6c.5,0,.1-.7,0-1-.5-.7-1.8-1.1-2.5-.6ZM25.8,19c-.2-.3-1.4,0-1.8,0s-1.7,1.5-.8,1.5,2-.8,2.2-.9.5-.4.4-.7ZM26.1,24.7c.9-.9.7-3.4-.8-3.8-2.2-.5-2.5,3.9-.7,4.2s1.1,0,1.5-.4ZM33.5,20.9c-1.9.1-2.2,4.7.5,4.2s1.7-4.4-.5-4.2ZM29.6,22.5c.1-.2-.1-.6-.3-.3l-.3,1.4c.2.2.8-.7.7-.9-.4.2-.6,0-.1-.1ZM24.3,25.8c-.3-.4-1.8-.4-2,0-.7,1.4,3,1,2,0ZM35,25.6c-1.2.2-.8,1.4.7,1.2s.8-1.5-.7-1.2Z"/>
  <path class="st0" d="M38.4,17.7c-3.4-2.1-7.3-2.1-11.2-1.5s-5.5,1.4-7.6,3.1l-.2-.3-.3-4.8c.1-.6,1.8-1.8,2.3-2.1,3.9-2.4,10.4-3.3,14.6-1.2s2.6,3.9,2.4,6.7Z"/>
  <path class="st0" d="M37.3,38.1l1,8.3c-.7,0-1.2,0-1.8-.5-.2-.2.2-1.2.2-1.6,0-.8-.7-2.1-1.3-2.6s-.6-.5-.6-.2.9,2.1,1,2.7,0,.6,0,.9,0,.4-.1.4l-1.5-4h-.4c.3.7.7,1.4,1,2.1s.4.9.3,1.3c-.8-.8-1-2-1.5-3s-.6-.4-.4,0,1.1,1.9,1,2c-1-.2-.9-1.4-1.4-2s0-.2-.3-.1c-.5.2.5,1.5.4,1.6-.6,0-.9-.1-1.5,0s-.3.3-.4.3-.4-.2-.6-.2c-1,0-1.6.9-1,1.8h0c0,.2-1.4.6-1.6.6-.7.1-1.4,0-2,.2s-2.7,1.3-2.8,1.5-.2.4-.3.5c-.3.2-.8,0-.8.6s.2.5,0,.7l-.5-.3.6-11.1h15.5ZM23.8,38.6c-1.5,0-1.3,2.4.3,2.1s1-2.2-.3-2.1ZM35.1,38.6c-1.1.3-1,2.1.2,2.2,1.7.1,1.5-2.6-.2-2.2ZM23.6,43.8c-1.2.3-.7,2.4.7,2s.8-2.3-.7-2Z"/>
  <path class="st0" d="M23.5,36.1l1.3,1.5h-3.6c0,.1-.7,11.2-.7,11.2-.1.2-1.2-.2-1.2-.3-.2-1.9,0-3.9.1-5.8l-1.8,5.3-1.9.2,3.4.9,2.4,1.1c-.2.8-.6,1.4-.5,2.3-1.8.3-3.9.7-5.7.5s-2.6-1.8-2.7-3.2c-.3-3.6,2.6-8.9,5.4-11.1s3.5-2.3,5.4-2.5Z"/>
  <path class="st0" d="M41.4,52.9c.4-.9.2-1.9-.5-2.7l2.8-2.7-1.8.8-2.4-5.6c-.2,0-.1.3-.1.4,0,1.3.2,2.6.2,3.9l-.6-.3-1-8.6-.2-.3h-3.4c0-.3,0-.2.1-.3.3-.2,1.2-1.2,1.4-1.2,4.9,1.1,9,5.5,10.5,10.1s.9,5-.9,6.2-1,.4-1.1.4h-3.1Z"/>
  <path class="st0" d="M32.8,28.5c.2,1.1-1.2,1.9-2.1,2.1-1.3.4-3.3,0-4.2-1s-.7-1-.2-1,1.1.2,1.6.2c1.6,0,3.3,0,4.9-.3Z"/>
  <path class="st0" d="M20.2,21.5v2.5c-.5-.1-1-.5-1.2-1-.2,0-.1.6,0,.7.2.8,1.2,1.1,1.2,1.1v2.2c-1.2,0-1.7-.9-1.9-2-.3-1.6-.5-4.4,1.9-3.6Z"/>
  <path class="st0" d="M36,52.3c.4,0,2.3-.4,2.5-.7.4-.6-.9-.6-.8-1.2.6,0,1.3.3,1.9.3s.7-.1.9,0c.6.1.7,1.6.3,2-.6.6-4.2.6-4.8-.4Z"/>
  <path class="st0" d="M25.1,50.2c.3.7-1.2.8-.9,1.3s1.8.7,2.1.6c-.4,1.1-4.2.8-4.6.3s0-1.5.6-1.8,1.1-.4,1.2-.4h1.7Z"/>
  <path class="st0" d="M25.9,37.6c-.3,0-1.6-1.3-1.7-1.5-.2-.5.1-.8.3-1.2l3.3,1.4v1.4c-.4,0-1.4.1-1.9,0Z"/>
  <path class="st0" d="M39.1,27l-.2-2c.5-.5.9-1.1.9-1.9-.2,0-.7,1-.9.8v-2.4c1.7-.7,1.6,2.2,1.5,3.3s-.3,1.9-1.3,2.1Z"/>
  <path class="st0" d="M34.6,36.6c-.2.2-1.1.9-1.3.9s-1.1.1-1.3.1-.2,0-.2-.2v-1.5c.1,0,2.8-1.4,2.8-1.4l.5,1.2c0,.1-.4.6-.5.7Z"/>
  <path class="st0" d="M27.1,48.2v.3c-.1,0-.7.1-.7.1h1s-.2-.3-.2-.3c.2-.1.6.2.7.4-1.6,0-3.2,0-4.8-.3.4-1.1,1.5-.4,2.3-.3s1.1-.2,1.8.1Z"/>
  <path class="st0" d="M33.2,48.4l-1-1.8c.5,0,1.1.2,1.4-.2l.5,1.1-.9,1Z"/>
  <path class="st0" d="M28.3,37.6v-1.2c1,1,1.9,1.3,3,.1v1s-3,0-3,0Z"/>
  <path class="st0" d="M30.2,46.2c-.6,0-.5.8-1,1.1l-.6,1.5c-.6-.6.6-2.7,1.1-2.9s.4.1.5.3Z"/>
  <path class="st0" d="M28.3,46.7c-.2.4-.9.2-1.3.2s-.7.3-1.3.2-.3-.2-.5-.2-.3.3-.5.2c.9-.9,2.5-.6,3.6-.5Z"/>
  <path class="st0" d="M35.7,46.4c.1-.1.7.3.9.3.5.1,2.7.2,2.7.8s-.8-.1-.9-.2c-.6-.1-.6-.1-1.2-.3s-2-.2-1.5-.6Z"/>
  <path class="st0" d="M34.3,48.1c.3-.7,3.1-.7,3.1-.3-.2.6-.9.4-1.4.3s-.3-.3-.5-.3c-.3,0-.9.3-1.2.3Z"/>
  <path class="st0" d="M33,45.2c-.4,0-.6-.4-1-.4-.6-.1-1.3-.1-1.9-.3s-.2,0-.2-.2c1-.1,2.5,0,3.1.9Z"/>
  <path class="st0" d="M30.8,47.4c0,.5-1,.6-.9,1.2s.3,0,.2.2h-.7c0-1,.1-1.6,1.4-1.4Z"/>
  <path class="st0" d="M33.9,45.1c-.5,0-.7-.6-1.2-.8l-1.1-.4c.6-.2,1.4,0,1.9.4s.4.9.4.9Z"/>
  <path d="M33.5,20.9c2.2-.1,2.2,4,.5,4.2-2.7.4-2.4-4.1-.5-4.2ZM33.3,22c-.5-.5-1.3.2-.9.8s1.5-.3.9-.8ZM33.2,23.5c-.2-.1-.8.1-.6.5.3.6,1-.2.6-.5Z"/>
  <path d="M26.1,24.7c-.4.4-1,.5-1.5.4-1.7-.3-1.5-4.7.7-4.2s1.7,2.9.8,3.8ZM23.9,21.9c-.5.2-.4,1.3.3,1.2s.7-1.6-.3-1.2ZM24.5,24.2c.3-.2,0-1.1-.5-.6s.2.9.5.6Z"/>
  <path d="M25.8,19c.2.3-.1.6-.4.7s-2.1.9-2.2.9c-.9,0,.3-1.3.8-1.5s1.6-.4,1.8,0Z"/>
  <path d="M32.6,19c.8-.4,2,0,2.5.6s.6,1,0,1-1-.5-1.2-.6c-.5-.2-1.4-.3-1.3-1Z"/>
  <path d="M35,25.6c1.5-.3,2.1,1,.7,1.2s-1.8-1-.7-1.2Z"/>
  <path d="M24.3,25.8c1,1.1-2.7,1.4-2,0s1.7-.4,2,0Z"/>
  <path d="M29.6,22.5c-.4,0-.2.4.1.1.1.2-.5,1.1-.7.9l.3-1.4c.1-.2.4.1.3.3Z"/>
  <path d="M35.1,38.6c1.7-.4,1.9,2.3.2,2.2s-1.3-1.9-.2-2.2Z"/>
  <path d="M23.8,38.6c1.3,0,1.5,2,.3,2.1s-1.8-2.1-.3-2.1Z"/>
  <path d="M23.6,43.8c1.5-.3,1.9,1.6.7,2s-1.9-1.7-.7-2Z"/>
  <path class="st0" d="M33.3,22c.6.6-.4,1.6-.9.8s.4-1.3.9-.8Z"/>
  <path class="st0" d="M33.2,23.5c.4.3-.3,1.1-.6.5s.4-.6.6-.5Z"/>
  <path class="st0" d="M23.9,21.9c1-.3,1.2,1.1.3,1.2s-.8-1.1-.3-1.2Z"/>
  <path class="st0" d="M24.5,24.2c-.4.2-1-.2-.5-.6s.9.4.5.6Z"/>
</svg>